<svg xmlns="http://www.w3.org/2000/svg" x="0px" y="0px"
width="64" height="64"
viewBox="0 0 172 172"
style=" fill:#000000;"><g transform=""><g fill="none" fill-rule="nonzero" stroke="none" stroke-width="1" stroke-linecap="butt" stroke-linejoin="miter" stroke-miterlimit="10" stroke-dasharray="" stroke-dashoffset="0" font-family="none" font-weight="none" font-size="none" text-anchor="none" style="mix-blend-mode: normal"><path d="M0,172v-172h172v172z" fill="none"></path><path d="M86,172c-47.49649,0 -86,-38.50351 -86,-86v0c0,-47.49649 38.50351,-86 86,-86v0c47.49649,0 86,38.50351 86,86v0c0,47.49649 -38.50351,86 -86,86z" fill="#3498db"></path><g fill="#ffffff"><path d="M81.7,25.8v55.9h-51.6v8.6h51.6v55.9h8.6v-55.9h51.6v-8.6h-51.6v-55.9zM118.25,30.1c-8.299,0 -15.05,6.751 -15.05,15.05v2.15h8.6v-2.15c0,-3.5561 2.8939,-6.45 6.45,-6.45c3.7969,0 6.45,2.6531 6.45,6.45c0,6.45 -13.7256,14.2588 -21.5,19.35v8.6h30.1v-8.6h-16.34336c7.5207,-4.7558 16.34336,-10.75 16.34336,-19.35c0,-8.5785 -6.4715,-15.05 -15.05,-15.05zM43,98.9v8.6h8.6v21.5h-8.6v8.6h25.8v-8.6h-8.6v-30.1h-4.3h-4.3z"></path></g></g></g></svg>